# xmcd
#
# Track frame offsets: 
#        151
#        11413
#        22376
#        33084
#        44933
#        55314
#        66857
#        75259
#        85784
#        98198
#        111228
#        119945
#        132626
#        143604
#
# Disc length: 2050 seconds
#
# Revision: 2
# Processed by: cddbd v1.5.2PL0 Copyright (c) Steve Scherf et al.
# Submitted via: ExactAudioCopyFreeDBPlugin 1.0
#
DISCID=c708000e
DTITLE=Various Artist - Best of the 50s and 60s__cd2
DYEAR=2003
DGENRE=Oldies
TTITLE0=Billy Haley - Shake Rattle and Roll
TTITLE1=Little Richard - Lucille
TTITLE2=Chubby Checker - Let's Twist Again
TTITLE3=The Platters - The Great Pretender
TTITLE4=The Termeloes - Silence Is Golden
TTITLE5=The Drifters - Saturday Night At The Movies
TTITLE6=Jerry Lee Lewis - Great Balls Of Fire
TTITLE7=Timi Turo - Hurt
TTITLE8=Gerry and The Peacemakers - Youll Never Walk Alone
TTITLE9=Herman's Hermits - No Milk Today
TTITLE10=The Box Tops - The Letter
TTITLE11=The Shangri Las - Leader Of The Pack
TTITLE12=The Drifters - Spanish Harlem
TTITLE13=Lesley Gore - It's My Party
EXTD=
EXTT0=
EXTT1=
EXTT2=
EXTT3=
EXTT4=
EXTT5=
EXTT6=
EXTT7=
EXTT8=
EXTT9=
EXTT10=
EXTT11=
EXTT12=
EXTT13=
PLAYORDER=
